<svg xmlns="http://www.w3.org/2000/svg" viewBox="0 0 630 630" width="100%" height="100%">
  <rect width="630" height="630" fill="#f7df1e"/>
  <path d="m368 367.58c0 56.556-34.12 92.054-93.59 92.054-52.067 0-82.684-24.842-95.42-53.111l49.52-28.705c8.27 15.172 23.45 27.327 45.4 27.327 25.17 0 41.59-11.374 41.59-40.211v-194.24h52.5v196.88zm218.5-51.05c-11.03-35.516-38.61-55.854-78.61-55.854-48.27 0-77.17 31.027-77.17 79.973 0 48.956 27.24 79.973 78.55 79.973 38.27 0 64.13-19.307 75.52-49.645l48.13 28.705c-18.96 38.614-57.58 68.614-123.3 68.614-83.1 0-131.7-52.756-131.7-127.6 0-72.75 49.65-128.2 129.2-128.2 65.51 0 102.7 31.026 120.3 71.026z" fill="#000000"/>
</svg>
